<svg xmlns="http://www.w3.org/2000/svg" xmlns:xlink="http://www.w3.org/1999/xlink" width="72" height="72" viewBox="0 0 72 72"><defs><style>.a{fill:#fff;stroke:#231f20;stroke-miterlimit:10;}.b{fill:url(#a);}.c{fill:url(#b);}.d{fill:url(#c);}.e{fill:url(#d);}.f,.g,.h,.i{mix-blend-mode:multiply;isolation:isolate;}.f{fill:url(#e);}.g{fill:url(#f);}.h,.i{opacity:0.17;}.h{fill:url(#g);}.i{fill:url(#h);}</style><linearGradient id="a" x1="0.675" y1="1.031" x2="0.178" y2="0.408" gradientUnits="objectBoundingBox"><stop offset="0" stop-color="#ffcf4e"/><stop offset="1" stop-color="#ffd971"/></linearGradient><linearGradient id="b" x1="0.5" y1="1" x2="0.5" gradientUnits="objectBoundingBox"><stop offset="0" stop-color="#fff0c9"/><stop offset="1" stop-color="#ffe395"/></linearGradient><linearGradient id="c" y1="0.5" x2="1" y2="0.5" gradientUnits="objectBoundingBox"><stop offset="0" stop-color="#ffcf4e"/><stop offset="1" stop-color="#ffe395"/></linearGradient><linearGradient id="d" x1="0.5" y1="1" x2="0.5" gradientUnits="objectBoundingBox"><stop offset="0" stop-color="#ffe395"/><stop offset="0.303" stop-color="#ffe395"/><stop offset="0.752" stop-color="#fff0c9"/><stop offset="1" stop-color="#fff0c9"/></linearGradient><radialGradient id="e" cx="-0.044" cy="-0.286" fx="-1.6019423007965088" fy="-0.07476656138896942" r="2.15" gradientTransform="matrix(0.252, -0.938, 0.785, 0.397, 0.192, -0.213)" gradientUnits="objectBoundingBox"><stop offset="0.011" stop-color="#fff" stop-opacity="0"/><stop offset="0.901"/></radialGradient><radialGradient id="f" cx="1.044" cy="1.286" fx="-0.5146198272705078" fy="1.496935486793518" r="2.15" gradientTransform="matrix(-0.252, 0.938, -0.785, -0.397, 6.178, -2.286)" xlink:href="#e"/><radialGradient id="g" cx="-0.286" cy="1.044" fx="1.2643533432483673" fy="1.0436512231826782" r="1.566" gradientTransform="matrix(-1.289, -0.345, 0.545, -1.079, 5.364, 3.891)" xlink:href="#e"/><radialGradient id="h" cx="1.286" cy="-0.044" fx="2.8360312640666963" fy="-0.04366503655910492" r="1.566" gradientTransform="matrix(1.289, 0.345, -0.545, 1.079, 0.55, 1.125)" xlink:href="#e"/></defs><path class="a" d="M434.606,361.256" transform="translate(-392.23 -320.717)"/><path class="b" d="M301.807,207.571l-27.85,27.85v16.3h0l27.533-27.533,19.383,19.383,8.467-8.467Z" transform="translate(-273.957 -207.571)"/><path class="c" d="M318.107,325.949l-27.533-27.533,19.383-19.383-8.467-8.467L273.957,298.1l27.85,27.85Z" transform="translate(-273.957 -253.949)"/><path class="d" d="M392.337,313.15,364.8,340.683,345.421,321.3l-8.467,8.467L364.487,357.3l27.85-27.85Z" transform="translate(-320.337 -285.3)"/><path class="e" d="M395.838,207.571h-16.3L407.071,235.1l-19.383,19.383,8.467,8.467,27.533-27.533Z" transform="translate(-351.688 -207.571)"/><path class="f" d="M451.466,311.949,443,320.416l-3.159-3.159S442.878,320.576,451.466,311.949Z" transform="translate(-396.082 -284.416)"/><path class="g" d="M336.954,352.519l8.467-8.467,3.159,3.159S345.542,343.892,336.954,352.519Z" transform="translate(-320.337 -308.051)"/><path class="h" d="M378.342,270.574l8.467,8.467-3.159,3.16S386.969,279.162,378.342,270.574Z" transform="translate(-350.807 -253.955)"/><path class="i" d="M418.907,385.081l-8.467-8.467,3.159-3.159S410.28,376.493,418.907,385.081Z" transform="translate(-374.438 -329.697)"/></svg>