<svg xmlns="http://www.w3.org/2000/svg" xmlns:xlink="http://www.w3.org/1999/xlink" width="221.727" height="61" viewBox="0 0 221.727 61"><defs><style>.a{fill:#fff;stroke:#231f20;stroke-miterlimit:10;}.b{fill:url(#a);}.c{fill:url(#b);}.d{fill:url(#c);}.e{fill:url(#d);}.f,.g,.h,.i{mix-blend-mode:multiply;isolation:isolate;}.f{fill:url(#e);}.g{fill:url(#f);}.h,.i{opacity:0.17;}.h{fill:url(#g);}.i{fill:url(#h);}.j{fill:#272521;font-size:33px;font-family:FoundersGrotesk-Medium, Founders Grotesk;font-weight:500;}</style><linearGradient id="a" x1="0.675" y1="1.031" x2="0.178" y2="0.408" gradientUnits="objectBoundingBox"><stop offset="0" stop-color="#ffcf4e"/><stop offset="1" stop-color="#ffd971"/></linearGradient><linearGradient id="b" x1="0.5" y1="1" x2="0.5" gradientUnits="objectBoundingBox"><stop offset="0" stop-color="#fff0c9"/><stop offset="1" stop-color="#ffe395"/></linearGradient><linearGradient id="c" y1="0.5" x2="1" y2="0.5" gradientUnits="objectBoundingBox"><stop offset="0" stop-color="#ffcf4e"/><stop offset="1" stop-color="#ffe395"/></linearGradient><linearGradient id="d" x1="0.5" y1="1" x2="0.5" gradientUnits="objectBoundingBox"><stop offset="0" stop-color="#ffe395"/><stop offset="0.303" stop-color="#ffe395"/><stop offset="0.752" stop-color="#fff0c9"/><stop offset="1" stop-color="#fff0c9"/></linearGradient><radialGradient id="e" cx="-0.044" cy="-0.286" fx="-1.6019423007965088" fy="-0.07476656138896942" r="2.15" gradientTransform="matrix(0.252, -0.938, 0.785, 0.397, 0.192, -0.213)" gradientUnits="objectBoundingBox"><stop offset="0.011" stop-color="#fff" stop-opacity="0"/><stop offset="0.901"/></radialGradient><radialGradient id="f" cx="1.044" cy="1.286" fx="-0.5146198272705078" fy="1.496935486793518" r="2.15" gradientTransform="matrix(-0.252, 0.938, -0.785, -0.397, 6.178, -2.286)" xlink:href="#e"/><radialGradient id="g" cx="-0.286" cy="1.044" fx="1.2643533432483673" fy="1.0436512231826782" r="1.566" gradientTransform="matrix(-1.289, -0.345, 0.545, -1.079, 5.364, 3.891)" xlink:href="#e"/><radialGradient id="h" cx="1.286" cy="-0.044" fx="2.8360312640666963" fy="-0.04366503655910492" r="1.566" gradientTransform="matrix(1.289, 0.345, -0.545, 1.079, 0.55, 1.125)" xlink:href="#e"/></defs><g transform="translate(127.77 -239.571)"><g transform="translate(-127.77 239.571)"><path class="a" d="M434.606,361.256" transform="translate(-398.704 -326.91)"/><path class="b" d="M297.552,207.571l-23.595,23.6v13.81h0l23.327-23.327,16.422,16.422,7.173-7.173Z" transform="translate(-273.957 -207.571)"/><path class="c" d="M311.362,317.488l-23.327-23.327,16.422-16.422-7.173-7.173-23.327,23.327,23.595,23.595Z" transform="translate(-273.957 -256.488)"/><path class="d" d="M383.876,313.15l-23.327,23.327-16.422-16.422-7.173,7.173,23.327,23.327,23.6-23.6Z" transform="translate(-322.875 -289.555)"/><path class="e" d="M393.348,207.571h-13.81L402.865,230.9l-16.422,16.422,7.173,7.173,23.327-23.327Z" transform="translate(-355.942 -207.571)"/><path class="f" d="M449.689,311.949l-7.174,7.173-2.677-2.677S442.414,319.258,449.689,311.949Z" transform="translate(-402.767 -288.622)"/><path class="g" d="M336.954,351.225l7.174-7.173,2.677,2.677S344.23,343.917,336.954,351.225Z" transform="translate(-322.875 -313.551)"/><path class="h" d="M378.342,270.574l7.173,7.174-2.677,2.677S385.651,277.85,378.342,270.574Z" transform="translate(-355.014 -256.494)"/><path class="i" d="M417.613,383.3l-7.173-7.174,2.677-2.677S410.3,376.029,417.613,383.3Z" transform="translate(-379.938 -336.382)"/></g><text class="j" transform="translate(-57.043 282.571)"><tspan x="0" y="0">PULL MAN</tspan></text></g></svg>