<svg xmlns="http://www.w3.org/2000/svg" width="60.64" height="61.333" viewBox="0 0 60.64 61.333"><defs><style>.a{fill:#474747;}</style></defs><g transform="translate(-1009.324 -914.358)"><g transform="translate(1009.324 914.358)"><g transform="translate(15.42 20.498)"><path class="a" d="M1159.252,1116.236h-27.828a.955.955,0,0,1-.955-.955v-38.926a.955.955,0,0,1,.955-.955h27.828a.955.955,0,0,1,.955.955v38.926A.955.955,0,0,1,1159.252,1116.236Zm-26.874-1.909H1158.3V1077.31h-25.919Z" transform="translate(-1130.469 -1075.401)"/><path class="a" d="M1189.8,1163.8h-17.4a.955.955,0,1,1,0-1.909h17.4a.955.955,0,1,1,0,1.909Z" transform="translate(-1166.235 -1150.879)"/><path class="a" d="M1189.8,1206.241h-17.4a.955.955,0,1,1,0-1.909h17.4a.955.955,0,1,1,0,1.909Z" transform="translate(-1166.235 -1187.921)"/><path class="a" d="M1189.8,1248.685h-17.4a.955.955,0,1,1,0-1.909h17.4a.955.955,0,1,1,0,1.909Z" transform="translate(-1166.235 -1224.963)"/><path class="a" d="M1189.8,1291.129h-17.4a.955.955,0,1,1,0-1.909h17.4a.955.955,0,1,1,0,1.909Z" transform="translate(-1166.235 -1262.004)"/><path class="a" d="M1178.772,1333.574h-6.367a.955.955,0,1,1,0-1.909h6.367a.955.955,0,0,1,0,1.909Z" transform="translate(-1166.235 -1299.047)"/></g><g transform="translate(10.265 15.451)"><path class="a" d="M1090.922,1071.4a.955.955,0,0,1-.955-.955V1036.7a.955.955,0,0,1,.955-.955h27.828a.955.955,0,0,1,.955.955v1.66a.955.955,0,0,1-1.909,0v-.705h-25.919v32.785A.955.955,0,0,1,1090.922,1071.4Z" transform="translate(-1089.967 -1035.748)"/></g><g transform="translate(5.132 10.319)"><path class="a" d="M1050.6,1030.909a.955.955,0,0,1-.955-.955V996.382a.955.955,0,0,1,.955-.955h11.538a.955.955,0,0,1,0,1.909h-10.583v32.618A.954.954,0,0,1,1050.6,1030.909Z" transform="translate(-1049.645 -995.427)"/></g><g transform="translate(0 5.186)"><path class="a" d="M1010.279,990.754a.955.955,0,0,1-.955-.955V956.06a.955.955,0,0,1,.955-.955h27.828a.955.955,0,0,1,.955.955v1.7a.955.955,0,1,1-1.909,0v-.749h-25.919V989.8A.955.955,0,0,1,1010.279,990.754Z" transform="translate(-1009.324 -955.105)"/></g><g transform="translate(20.637 10.265)"><path class="a" d="M1200.243,1035.837a.955.955,0,0,1-.955-.955V996.911h-25.919v.968a.955.955,0,1,1-1.909,0v-1.922a.955.955,0,0,1,.955-.955h27.829a.955.955,0,0,1,.955.955v38.926A.955.955,0,0,1,1200.243,1035.837Z" transform="translate(-1171.46 -995.002)"/></g><g transform="translate(32.035 5.132)"><path class="a" d="M1283.52,995.349a.955.955,0,0,1-.955-.955v-37.8h-20.609a.955.955,0,1,1,0-1.909h21.563a.955.955,0,0,1,.955.955v38.759A.955.955,0,0,1,1283.52,995.349Z" transform="translate(-1261.002 -954.68)"/></g><g transform="translate(34.396)"><path class="a" d="M1304.846,955.193a.955.955,0,0,1-.955-.955V916.267h-22.425v1.207a.955.955,0,0,1-1.909,0v-2.161a.955.955,0,0,1,.955-.955h24.334a.955.955,0,0,1,.955.955v38.926A.955.955,0,0,1,1304.846,955.193Z" transform="translate(-1279.557 -914.358)"/></g></g></g></svg>