<svg xmlns="http://www.w3.org/2000/svg" width="62.22" height="59.5" viewBox="0 0 62.22 59.5"><defs><style>.a{fill:#474747;}</style></defs><g transform="translate(-2528.192 -2343.372)"><g transform="translate(2528.192 2343.372)"><path class="a" d="M2735.582,2629.2c-.829,0-1.666-.019-2.488-.056a.974.974,0,0,1,.089-1.946c.792.036,1.6.054,2.4.054a47.448,47.448,0,0,0,13.415-1.854.974.974,0,1,1,.559,1.866A49.422,49.422,0,0,1,2735.582,2629.2Z" transform="translate(-2705.672 -2588.728)"/><path class="a" d="M2896.633,2473.659a.974.974,0,0,1-.508-1.806c3.847-2.344,5.965-5.265,5.965-8.226,0-3.519-3-6.962-8.236-9.446a.974.974,0,0,1,.835-1.76,20.421,20.421,0,0,1,6.741,4.834,9.618,9.618,0,0,1,2.608,6.372c0,3.667-2.45,7.179-6.9,9.89A.97.97,0,0,1,2896.633,2473.659Z" transform="translate(-2845.876 -2438.175)"/><path class="a" d="M2705.573,2426.478a.977.977,0,0,1-.177-.016,51.266,51.266,0,0,0-17.125-.149.974.974,0,0,1-.315-1.923,52.413,52.413,0,0,1,8.449-.673,51.86,51.86,0,0,1,9.343.829.974.974,0,0,1-.174,1.932Z" transform="translate(-2666.494 -2413.281)"/><path class="a" d="M2558.938,2472.685a.971.971,0,0,1-.2-.021c-10.8-2.261-17.786-7.744-17.786-13.968,0-4.765,4.04-9.126,11.084-11.966a.974.974,0,1,1,.728,1.807,21.237,21.237,0,0,0-7.292,4.584,8.021,8.021,0,0,0-2.572,5.574c0,2.53,1.513,5,4.375,7.152a30.271,30.271,0,0,0,11.862,4.909.974.974,0,0,1-.2,1.928Z" transform="translate(-2539.294 -2433.245)"/><path class="a" d="M2938.8,2547.859a.974.974,0,0,1-.689-1.663,8.119,8.119,0,0,0,2.725-5.73v-7.66a.974.974,0,1,1,1.948,0v7.66a10.116,10.116,0,0,1-3.3,7.108A.972.972,0,0,1,2938.8,2547.859Z" transform="translate(-2884.617 -2507.354)"/><path class="a" d="M2711.131,2676.325a53.459,53.459,0,0,1-6.206-.358.974.974,0,1,1,.227-1.935,51.5,51.5,0,0,0,5.979.345,43.3,43.3,0,0,0,17.96-3.571.974.974,0,1,1,.828,1.763A45.27,45.27,0,0,1,2711.131,2676.325Z" transform="translate(-2681.221 -2628.197)"/><path class="a" d="M2555.437,2553.565a.975.975,0,0,1-.282-.042,27.485,27.485,0,0,1-10.148-5.239c-2.653-2.332-4.056-5.035-4.056-7.819v-7.66a.974.974,0,0,1,1.948,0v7.66c0,4.52,4.912,8.809,12.818,11.193a.974.974,0,0,1-.281,1.907Z" transform="translate(-2539.294 -2507.354)"/><path class="a" d="M2763.645,2543.891a.974.974,0,0,1-.974-.974v-7.2l-11.437-12.364a.974.974,0,0,1,.661-1.634l26.948-1.509a.974.974,0,1,1,.109,1.945l-24.883,1.394,10.292,11.126a.974.974,0,0,1,.259.662v7.578A.974.974,0,0,1,2763.645,2543.891Z" transform="translate(-2722.038 -2497.242)"/><path class="a" d="M2613.2,2461.448a.974.974,0,0,1-.974-.974v-7.6a.975.975,0,0,1,.485-.843l17.537-10.173,3.353-13.084a.974.974,0,1,1,1.887.483l-3.454,13.48a.973.973,0,0,1-.455.6l-17.405,10.1v7.035A.974.974,0,0,1,2613.2,2461.448Z" transform="translate(-2601.316 -2417.046)"/><path class="a" d="M2846.2,2401.679a.974.974,0,0,1-.689-1.663l8.64-8.64a.974.974,0,0,1,1.378,1.378l-8.64,8.64A.972.972,0,0,1,2846.2,2401.679Z" transform="translate(-2804.044 -2384.893)"/><path class="a" d="M2949.446,2391.061h-6.532a.974.974,0,1,1,0-1.948h6.532a.974.974,0,1,1,0,1.948Z" transform="translate(-2888.2 -2383.172)"/><path class="a" d="M2945.844,2420.414h-2.93a.974.974,0,1,1,0-1.948h2.93a.974.974,0,1,1,0,1.948Z" transform="translate(-2888.2 -2408.713)"/><path class="a" d="M2947.981,2736.2h-6.751a.974.974,0,0,1,0-1.948h6.751a.974.974,0,1,1,0,1.948Z" transform="translate(-2886.735 -2683.48)"/><path class="a" d="M2944.379,2765.55h-3.149a.974.974,0,0,1,0-1.948h3.149a.974.974,0,0,1,0,1.948Z" transform="translate(-2886.735 -2709.021)"/><path class="a" d="M2670.843,2759.067h-6.533a.974.974,0,0,1,0-1.948h6.533a.974.974,0,0,1,0,1.948Z" transform="translate(-2645.783 -2703.38)"/><path class="a" d="M2667.24,2788.42h-2.93a.974.974,0,0,1,0-1.948h2.93a.974.974,0,0,1,0,1.948Z" transform="translate(-2645.783 -2728.92)"/><path class="a" d="M2535.7,2345.32h-6.532a.974.974,0,0,1,0-1.948h6.532a.974.974,0,0,1,0,1.948Z" transform="translate(-2528.192 -2343.372)"/><path class="a" d="M2532.1,2374.673h-2.93a.974.974,0,1,1,0-1.948h2.93a.974.974,0,1,1,0,1.948Z" transform="translate(-2528.192 -2368.913)"/><path class="a" d="M2606.854,2396.893a.97.97,0,0,1-.684-.281l-9.722-9.587a.974.974,0,1,1,1.368-1.387l9.722,9.587a.974.974,0,0,1-.684,1.668Z" transform="translate(-2587.331 -2379.905)"/><path class="a" d="M2883.34,2614.649a.972.972,0,0,1-.795-.41l-8.642-12.152a.974.974,0,0,1,1.588-1.129l8.642,12.152a.974.974,0,0,1-.793,1.539Z" transform="translate(-2828.844 -2567.145)"/><path class="a" d="M2664.308,2627.879a.975.975,0,0,1-.907-1.329l5.857-14.988a.974.974,0,1,1,1.814.709l-5.857,14.987A.974.974,0,0,1,2664.308,2627.879Z" transform="translate(-2645.781 -2576.189)"/></g></g></svg>