<svg xmlns="http://www.w3.org/2000/svg" width="72.745" height="56" viewBox="0 0 72.745 56"><defs><style>.a{fill:#474747;}</style></defs><g transform="translate(-1757.125 -2369.731)"><g transform="translate(1757.125 2369.731)"><g transform="translate(6.676 17.213)"><path class="a" d="M1805.348,2607.583a2.759,2.759,0,1,1,2.759-2.759A2.762,2.762,0,0,1,1805.348,2607.583Zm0-3.315a.556.556,0,1,0,.556.556A.557.557,0,0,0,1805.348,2604.268Z" transform="translate(-1802.589 -2585.164)"/><path class="a" d="M1887.129,2554.7a2.759,2.759,0,1,1,2.759-2.759A2.762,2.762,0,0,1,1887.129,2554.7Zm0-3.315a.556.556,0,1,0,.556.556A.557.557,0,0,0,1887.129,2551.382Z" transform="translate(-1872.362 -2540.044)"/><path class="a" d="M1985.552,2574.012a2.759,2.759,0,1,1,2.759-2.759A2.762,2.762,0,0,1,1985.552,2574.012Zm0-3.315a.556.556,0,1,0,.556.556A.557.557,0,0,0,1985.552,2570.7Z" transform="translate(-1956.333 -2556.524)"/><path class="a" d="M2083.557,2531.777a2.759,2.759,0,1,1,2.759-2.759A2.762,2.762,0,0,1,2083.557,2531.777Zm0-3.315a.556.556,0,1,0,.556.556A.557.557,0,0,0,2083.557,2528.463Z" transform="translate(-2039.948 -2520.49)"/><path class="a" d="M2172.274,2492.479a2.759,2.759,0,1,1,2.759-2.759A2.762,2.762,0,0,1,2172.274,2492.479Zm0-3.315a.556.556,0,1,0,.556.556A.557.557,0,0,0,2172.274,2489.165Z" transform="translate(-2115.638 -2486.962)"/><path class="a" d="M2104.217,2510.04a1.1,1.1,0,0,1-.451-2.106l9.893-4.433a1.1,1.1,0,1,1,.9,2.01l-9.893,4.433A1.1,1.1,0,0,1,2104.217,2510.04Z" transform="translate(-2058.988 -2500.99)"/><path class="a" d="M2006.054,2549.923a1.1,1.1,0,0,1-.415-2.122l11.293-4.589a1.1,1.1,0,0,1,.829,2.04l-11.293,4.59A1.1,1.1,0,0,1,2006.054,2549.923Z" transform="translate(-1975.239 -2534.883)"/><path class="a" d="M1919.421,2568.237a1.113,1.113,0,0,1-.183-.015l-11.048-1.851a1.1,1.1,0,1,1,.364-2.172l11.048,1.851a1.1,1.1,0,0,1-.181,2.188Z" transform="translate(-1891.9 -2552.845)"/><path class="a" d="M1825.163,2575.166a1.1,1.1,0,0,1-.6-2.024l8.927-5.816a1.1,1.1,0,0,1,1.2,1.845l-8.927,5.816A1.094,1.094,0,0,1,1825.163,2575.166Z" transform="translate(-1820.907 -2555.374)"/><path class="a" d="M1813.066,2662.066a1.1,1.1,0,0,1-1.1-1.1v-6.716a1.1,1.1,0,1,1,2.2,0v6.716A1.1,1.1,0,0,1,1813.066,2662.066Z" transform="translate(-1810.588 -2628.746)"/><path class="a" d="M1846.848,2648.357a1.1,1.1,0,0,1-1.1-1.1v-9.076a1.1,1.1,0,1,1,2.2,0v9.076A1.1,1.1,0,0,1,1846.848,2648.357Z" transform="translate(-1839.41 -2615.037)"/><path class="a" d="M1880.63,2623.985a1.1,1.1,0,0,1-1.1-1.1v-13.27a1.1,1.1,0,1,1,2.2,0v13.27A1.1,1.1,0,0,1,1880.63,2623.985Z" transform="translate(-1868.232 -2590.665)"/><path class="a" d="M1914.411,2616.369a1.1,1.1,0,0,1-1.1-1.1v-14.581a1.1,1.1,0,0,1,2.2,0v14.581A1.1,1.1,0,0,1,1914.411,2616.369Z" transform="translate(-1897.053 -2583.049)"/><path class="a" d="M1948.193,2618.654a1.1,1.1,0,0,1-1.1-1.1v-14.187a1.1,1.1,0,1,1,2.2,0v14.188A1.1,1.1,0,0,1,1948.193,2618.654Z" transform="translate(-1925.874 -2585.334)"/><path class="a" d="M1981.975,2632.363a1.1,1.1,0,0,1-1.1-1.1v-11.828a1.1,1.1,0,0,1,2.2,0v11.828A1.1,1.1,0,0,1,1981.975,2632.363Z" transform="translate(-1954.696 -2599.043)"/><path class="a" d="M2015.756,2631.6a1.1,1.1,0,0,1-1.1-1.1v-11.959a1.1,1.1,0,0,1,2.2,0V2630.5A1.1,1.1,0,0,1,2015.756,2631.6Z" transform="translate(-1983.517 -2598.281)"/><path class="a" d="M2049.539,2618.654a1.1,1.1,0,0,1-1.1-1.1v-14.187a1.1,1.1,0,1,1,2.2,0v14.188A1.1,1.1,0,0,1,2049.539,2618.654Z" transform="translate(-2012.339 -2585.334)"/><path class="a" d="M2083.32,2607.23a1.1,1.1,0,0,1-1.1-1.1v-16.154a1.1,1.1,0,0,1,2.2,0v16.154A1.1,1.1,0,0,1,2083.32,2607.23Z" transform="translate(-2041.16 -2573.91)"/><path class="a" d="M2117.1,2594.282a1.1,1.1,0,0,1-1.1-1.1V2574.8a1.1,1.1,0,1,1,2.2,0v18.382A1.1,1.1,0,0,1,2117.1,2594.282Z" transform="translate(-2069.982 -2560.962)"/><path class="a" d="M2150.883,2579.749a1.1,1.1,0,0,1-1.1-1.1v-20.883a1.1,1.1,0,0,1,2.2,0v20.883A1.1,1.1,0,0,1,2150.883,2579.749Z" transform="translate(-2098.803 -2546.429)"/><path class="a" d="M2182.161,2567.564a1.1,1.1,0,0,1-1.1-1.1v-22.98a1.1,1.1,0,1,1,2.2,0v22.98A1.1,1.1,0,0,1,2182.161,2567.564Z" transform="translate(-2125.488 -2534.244)"/></g><path class="a" d="M1824.291,2425.731H1762.7a5.586,5.586,0,0,1-5.579-5.579V2375.31a5.586,5.586,0,0,1,5.579-5.579h61.586a5.586,5.586,0,0,1,5.579,5.579v44.841A5.586,5.586,0,0,1,1824.291,2425.731Zm-61.586-53.8a3.381,3.381,0,0,0-3.377,3.377v44.841a3.381,3.381,0,0,0,3.377,3.377h61.586a3.381,3.381,0,0,0,3.377-3.377V2375.31a3.381,3.381,0,0,0-3.377-3.377Z" transform="translate(-1757.125 -2369.731)"/><path class="a" d="M1852.16,2442.761h-60.408a1.1,1.1,0,1,1,0-2.2h60.408a1.1,1.1,0,1,1,0,2.2Z" transform="translate(-1785.728 -2430.159)"/><circle class="a" cx="1.688" cy="1.688" r="1.688" transform="translate(6.136 4.63)"/><circle class="a" cx="1.688" cy="1.688" r="1.688" transform="translate(11.813 4.63)"/><circle class="a" cx="1.688" cy="1.688" r="1.688" transform="translate(17.489 4.63)"/></g></g></svg>