<svg xmlns="http://www.w3.org/2000/svg" width="61.193" height="55.034" viewBox="0 0 61.193 55.034"><defs><style>.a{fill:#474747;}</style></defs><g transform="translate(-246.05 -238.972)"><g transform="translate(246.05 238.972)"><g transform="translate(0 11.275)"><g transform="translate(20.366 2.501)"><path class="a" d="M420.773,377.358a15.264,15.264,0,1,1,15.264-15.264A15.281,15.281,0,0,1,420.773,377.358Zm0-28.612a13.348,13.348,0,1,0,13.348,13.348A13.363,13.363,0,0,0,420.773,348.746Z" transform="translate(-405.509 -346.83)"/><path class="a" d="M613.726,556.006a.955.955,0,0,1-.677-.281l-14.261-14.261a.958.958,0,0,1,1.355-1.355L614.4,554.37a.958.958,0,0,1-.677,1.635Z" transform="translate(-573.857 -515.179)"/></g><path class="a" d="M299.89,656.773H247.008a.958.958,0,1,1,0-1.916H299.89a.958.958,0,1,1,0,1.916Z" transform="translate(-246.05 -613.014)"/><path class="a" d="M308.014,431.094a.958.958,0,0,1-.9-1.28l5.186-14.563a.958.958,0,0,1,1.392-.5l3.529,2.1a.958.958,0,0,1-.98,1.646l-2.527-1.5-4.8,13.465A.958.958,0,0,1,308.014,431.094Z" transform="translate(-299.264 -403.457)"/><path class="a" d="M518.551,397.564a.958.958,0,0,1-.617-1.691l10.237-8.609a.958.958,0,0,1,1.233,1.466l-10.238,8.609A.953.953,0,0,1,518.551,397.564Z" transform="translate(-482.91 -379.403)"/><path class="a" d="M426.883,422.984a.953.953,0,0,1-.492-.137l-8.2-4.931a.958.958,0,1,1,.987-1.642l8.2,4.931a.958.958,0,0,1-.494,1.779Z" transform="translate(-395.795 -404.784)"/><path class="a" d="M639.168,346.186a.958.958,0,0,1-.645-1.666l6.972-6.352a.958.958,0,0,1,1.29,1.416l-6.972,6.351A.954.954,0,0,1,639.168,346.186Z" transform="translate(-588.122 -336.556)"/><path class="a" d="M339.209,408.5a2.336,2.336,0,1,1,2.336-2.336A2.339,2.339,0,0,1,339.209,408.5Zm0-2.756a.42.42,0,1,0,.42.42A.421.421,0,0,0,339.209,405.742Z" transform="translate(-325.273 -394.046)"/><path class="a" d="M298.642,523.22a2.336,2.336,0,1,1,2.336-2.336A2.339,2.339,0,0,1,298.642,523.22Zm0-2.756a.42.42,0,1,0,.42.42A.421.421,0,0,0,298.642,520.464Z" transform="translate(-289.887 -494.115)"/><path class="a" d="M684.367,331.922a2.336,2.336,0,1,1,2.336-2.336A2.338,2.338,0,0,1,684.367,331.922Zm0-2.756a.42.42,0,1,0,.42.42A.42.42,0,0,0,684.367,329.166Z" transform="translate(-626.347 -327.25)"/><path class="a" d="M480.982,456.121a3.787,3.787,0,1,1,3.787-3.787A3.792,3.792,0,0,1,480.982,456.121Zm0-5.659a1.872,1.872,0,1,0,1.872,1.872A1.874,1.874,0,0,0,480.982,450.462Z" transform="translate(-447.673 -433.054)"/></g><path class="a" d="M248.729,619.571h-1.721a.958.958,0,1,1,0-1.916h1.721a.958.958,0,1,1,0,1.916Z" transform="translate(-246.05 -569.289)"/><path class="a" d="M248.729,581.7h-1.721a.958.958,0,1,1,0-1.916h1.721a.958.958,0,1,1,0,1.916Z" transform="translate(-246.05 -536.257)"/><path class="a" d="M248.729,543.834h-1.721a.958.958,0,1,1,0-1.916h1.721a.958.958,0,1,1,0,1.916Z" transform="translate(-246.05 -503.225)"/><path class="a" d="M248.729,505.966h-1.721a.958.958,0,1,1,0-1.916h1.721a.958.958,0,1,1,0,1.916Z" transform="translate(-246.05 -470.194)"/><path class="a" d="M248.729,468.1h-1.721a.958.958,0,1,1,0-1.916h1.721a.958.958,0,1,1,0,1.916Z" transform="translate(-246.05 -437.162)"/><path class="a" d="M248.729,430.23h-1.721a.958.958,0,0,1,0-1.916h1.721a.958.958,0,0,1,0,1.916Z" transform="translate(-246.05 -404.131)"/><path class="a" d="M248.729,392.361h-1.721a.958.958,0,1,1,0-1.916h1.721a.958.958,0,1,1,0,1.916Z" transform="translate(-246.05 -371.099)"/><path class="a" d="M248.729,354.493h-1.721a.958.958,0,1,1,0-1.916h1.721a.958.958,0,1,1,0,1.916Z" transform="translate(-246.05 -338.067)"/><path class="a" d="M248.729,316.625h-1.721a.958.958,0,1,1,0-1.916h1.721a.958.958,0,1,1,0,1.916Z" transform="translate(-246.05 -305.036)"/><path class="a" d="M248.729,278.757h-1.721a.958.958,0,1,1,0-1.916h1.721a.958.958,0,1,1,0,1.916Z" transform="translate(-246.05 -272.004)"/><path class="a" d="M248.729,240.888h-1.721a.958.958,0,1,1,0-1.916h1.721a.958.958,0,1,1,0,1.916Z" transform="translate(-246.05 -238.972)"/></g></g></svg>