<svg xmlns="http://www.w3.org/2000/svg" width="65.339" height="50" viewBox="0 0 65.339 50"><defs><style>.a{fill:#474747;}</style></defs><g transform="translate(-244.645 -994.553)"><g transform="translate(244.645 994.553)"><g transform="translate(0 0)"><path class="a" d="M295.267,1033.875H249.851a5.212,5.212,0,0,1-5.206-5.206V999.759a5.212,5.212,0,0,1,5.206-5.206h45.416a5.212,5.212,0,0,1,5.206,5.206,1.017,1.017,0,1,1-2.033,0,3.176,3.176,0,0,0-3.173-3.173H249.851a3.176,3.176,0,0,0-3.173,3.173v28.911a3.176,3.176,0,0,0,3.173,3.173h45.416a3.176,3.176,0,0,0,3.173-3.173v-10.781a1.017,1.017,0,0,1,2.033,0v10.781A5.212,5.212,0,0,1,295.267,1033.875Z" transform="translate(-244.645 -994.553)"/><g transform="translate(11.88 37.748)"><path class="a" d="M363.349,1285.31H333.316a1.016,1.016,0,1,1,0-2.033h4.661a3.383,3.383,0,0,0,3.379-3.379v-5.824a1.017,1.017,0,1,1,2.033,0v5.824a5.387,5.387,0,0,1-1.187,3.379h12.262a5.387,5.387,0,0,1-1.187-3.379v-5.824a1.017,1.017,0,1,1,2.033,0v5.824a3.383,3.383,0,0,0,3.379,3.379h4.662a1.016,1.016,0,1,1,0,2.033Z" transform="translate(-332.299 -1273.058)"/></g><path class="a" d="M302.106,1216.248H249.293a1.017,1.017,0,0,1,0-2.033h52.813a1.017,1.017,0,0,1,0,2.033Z" transform="translate(-247.784 -1184.443)"/></g><path class="a" d="M594.4,1036.808a1.017,1.017,0,0,1-.659-1.792l11.994-10.186a1.016,1.016,0,0,1,1.316,1.549l-11.994,10.187A1.012,1.012,0,0,1,594.4,1036.808Z" transform="translate(-546.117 -1020.517)"/><path class="a" d="M490.224,1074.655a1.015,1.015,0,0,1-.38-.074l-11.895-4.8a1.016,1.016,0,0,1,.761-1.885l11.895,4.8a1.017,1.017,0,0,1-.381,1.959Z" transform="translate(-445.778 -1057.892)"/><path class="a" d="M356.819,1076.37a1.017,1.017,0,0,1-.4-1.951l12.891-5.525a1.017,1.017,0,1,1,.8,1.869l-12.891,5.525A1.013,1.013,0,0,1,356.819,1076.37Z" transform="translate(-340.736 -1058.746)"/><path class="a" d="M595.962,1114.294a1.017,1.017,0,0,1-.518-1.892l11.239-6.644a1.017,1.017,0,0,1,1.035,1.75l-11.239,6.644A1.012,1.012,0,0,1,595.962,1114.294Z" transform="translate(-547.466 -1090.563)"/><path class="a" d="M490.505,1131.179a1.017,1.017,0,0,1-.3-.046l-11.869-3.677a1.016,1.016,0,1,1,.6-1.942l11.869,3.677a1.017,1.017,0,0,1-.3,1.988Z" transform="translate(-446.042 -1107.725)"/><path class="a" d="M357.813,1130.332a1.017,1.017,0,0,1-.258-2l12.75-3.361a1.017,1.017,0,0,1,.518,1.966l-12.75,3.361A1.02,1.02,0,0,1,357.813,1130.332Z" transform="translate(-341.596 -1107.265)"/><path class="a" d="M343.785,1110.335a1.892,1.892,0,1,1,1.892-1.892A1.894,1.894,0,0,1,343.785,1110.335Zm0-2.033a.141.141,0,1,0,.141.141A.142.142,0,0,0,343.785,1108.3Z" transform="translate(-328.712 -1091.372)"/><path class="a" d="M454.9,1056.627a2.665,2.665,0,1,1,2.665-2.666A2.668,2.668,0,0,1,454.9,1056.627Zm0-3.3a.632.632,0,1,0,.632.632A.633.633,0,0,0,454.9,1053.329Z" transform="translate(-424.095 -1043.605)"/><path class="a" d="M454.9,1115.167a2.665,2.665,0,1,1,2.665-2.665A2.668,2.668,0,0,1,454.9,1115.167Zm0-3.3a.632.632,0,1,0,.632.632A.633.633,0,0,0,454.9,1111.87Z" transform="translate(-424.095 -1094.212)"/><path class="a" d="M569.068,1100.349a2.94,2.94,0,1,1,2.94-2.939A2.943,2.943,0,0,1,569.068,1100.349Zm0-3.846a.907.907,0,1,0,.906.907A.907.907,0,0,0,569.068,1096.5Z" transform="translate(-522.556 -1080.928)"/><path class="a" d="M569.068,1149.718a2.94,2.94,0,1,1,2.94-2.939A2.943,2.943,0,0,1,569.068,1149.718Zm0-3.846a.907.907,0,1,0,.906.907A.908.908,0,0,0,569.068,1145.872Z" transform="translate(-522.556 -1123.605)"/><path class="a" d="M682.12,1003.685a3.242,3.242,0,1,1,3.242-3.242A3.246,3.246,0,0,1,682.12,1003.685Zm0-4.452a1.209,1.209,0,1,0,1.209,1.209A1.211,1.211,0,0,0,682.12,999.233Z" transform="translate(-620.023 -996.841)"/><path class="a" d="M682.12,1091.8a3.242,3.242,0,1,1,3.242-3.242A3.246,3.246,0,0,1,682.12,1091.8Zm0-4.452a1.209,1.209,0,1,0,1.209,1.209A1.211,1.211,0,0,0,682.12,1087.351Z" transform="translate(-620.023 -1073.016)"/><path class="a" d="M343.1,1148.784a2,2,0,1,1,2-2A2,2,0,0,1,343.1,1148.784Zm0-2.033a.034.034,0,0,0-.034.034c0,.038.068.038.068,0A.034.034,0,0,0,343.1,1146.751Z" transform="translate(-328.029 -1124.424)"/></g></g></svg>