<svg xmlns="http://www.w3.org/2000/svg" width="20.5" height="20.5" viewBox="0 0 20.5 20.5"><path d="M210.924,208.962A1.962,1.962,0,1,1,208.962,207,1.962,1.962,0,0,1,210.924,208.962Zm0,0" transform="translate(-198.712 -198.712)"/><path d="M144.9,136.843a1.949,1.949,0,0,0-1.117-1.117,3.256,3.256,0,0,0-1.093-.2c-.621-.028-.807-.034-2.378-.034s-1.758.006-2.378.034a3.259,3.259,0,0,0-1.093.2,1.95,1.95,0,0,0-1.117,1.117,3.258,3.258,0,0,0-.2,1.093c-.028.621-.034.807-.034,2.378s.006,1.758.034,2.378a3.257,3.257,0,0,0,.2,1.093,1.949,1.949,0,0,0,1.117,1.117,3.253,3.253,0,0,0,1.093.2c.621.028.807.034,2.378.034s1.758-.006,2.378-.034a3.253,3.253,0,0,0,1.093-.2,1.949,1.949,0,0,0,1.117-1.117,3.26,3.26,0,0,0,.2-1.093c.028-.621.034-.807.034-2.378s-.006-1.758-.034-2.378A3.253,3.253,0,0,0,144.9,136.843Zm-4.588,6.494a3.022,3.022,0,1,1,3.022-3.022A3.022,3.022,0,0,1,140.31,143.336Zm3.142-5.458a.706.706,0,1,1,.706-.706A.706.706,0,0,1,143.452,137.878Zm0,0" transform="translate(-130.06 -130.064)"/><path d="M10.25,0A10.25,10.25,0,1,0,20.5,10.25,10.251,10.251,0,0,0,10.25,0ZM16.1,12.677a4.318,4.318,0,0,1-.274,1.429,3.01,3.01,0,0,1-1.721,1.721,4.321,4.321,0,0,1-1.429.274c-.628.029-.828.036-2.427.036s-1.8-.007-2.427-.036a4.321,4.321,0,0,1-1.429-.274,3.009,3.009,0,0,1-1.721-1.721A4.317,4.317,0,0,1,4.4,12.677c-.029-.628-.036-.828-.036-2.427s.007-1.8.036-2.427a4.319,4.319,0,0,1,.273-1.429A3.012,3.012,0,0,1,6.395,4.673,4.322,4.322,0,0,1,7.823,4.4c.628-.029.828-.036,2.427-.036s1.8.007,2.427.036a4.323,4.323,0,0,1,1.429.273,3.01,3.01,0,0,1,1.721,1.722A4.318,4.318,0,0,1,16.1,7.823c.029.628.035.828.035,2.427S16.129,12.049,16.1,12.677Zm0,0"/></svg>