<svg xmlns="http://www.w3.org/2000/svg" width="21" height="21" viewBox="0 0 21 21"><path d="M10.5,0A10.5,10.5,0,1,0,21,10.5,10.5,10.5,0,0,0,10.5,0Zm4.794,8.187q.007.155.007.311a6.811,6.811,0,0,1-6.857,6.857h0A6.822,6.822,0,0,1,4.75,14.273a4.9,4.9,0,0,0,.575.033,4.836,4.836,0,0,0,2.993-1.032A2.413,2.413,0,0,1,6.066,11.6a2.4,2.4,0,0,0,1.089-.041A2.411,2.411,0,0,1,5.221,9.2c0-.011,0-.021,0-.031a2.393,2.393,0,0,0,1.092.3A2.412,2.412,0,0,1,5.567,6.25a6.842,6.842,0,0,0,4.968,2.518,2.411,2.411,0,0,1,4.107-2.2,4.834,4.834,0,0,0,1.53-.585,2.419,2.419,0,0,1-1.06,1.333,4.807,4.807,0,0,0,1.384-.38,4.9,4.9,0,0,1-1.2,1.248Zm0,0"/></svg>