<svg xmlns="http://www.w3.org/2000/svg" width="1062.863" height="1062.862" viewBox="0 0 1062.863 1062.862"><defs><style>.a{opacity:0.31;}.b{fill:none;stroke:#ffd25b;stroke-miterlimit:10;}</style></defs><g class="a" transform="translate(-576.095 171.911)"><circle class="b" cx="514.79" cy="514.79" r="514.79" transform="translate(592.736 -155.27)"/><circle class="b" cx="494.86" cy="494.86" r="494.86" transform="translate(612.666 -135.34)"/><circle class="b" cx="474.929" cy="474.929" r="474.929" transform="translate(632.597 -115.41)"/><circle class="b" cx="454.999" cy="454.999" r="454.999" transform="translate(652.527 -95.479)"/><circle class="b" cx="435.069" cy="435.069" r="435.069" transform="translate(672.457 -75.549)"/><circle class="b" cx="415.139" cy="415.139" r="415.139" transform="translate(692.387 -55.619)"/><circle class="b" cx="395.209" cy="395.209" r="395.209" transform="translate(712.317 -35.689)"/><circle class="b" cx="375.279" cy="375.279" r="375.279" transform="translate(576.802 359.52) rotate(-45)"/><circle class="b" cx="355.349" cy="355.349" r="355.349" transform="translate(604.987 359.52) rotate(-45)"/><circle class="b" cx="335.418" cy="335.418" r="335.418" transform="translate(633.173 359.52) rotate(-45)"/><circle class="b" cx="315.488" cy="315.488" r="315.488" transform="translate(661.358 359.52) rotate(-45)"/><circle class="b" cx="295.558" cy="295.558" r="295.558" transform="translate(689.544 359.52) rotate(-45)"/><circle class="b" cx="275.628" cy="275.628" r="275.628" transform="translate(717.729 359.52) rotate(-45)"/><circle class="b" cx="255.698" cy="255.698" r="255.698" transform="translate(745.915 359.52) rotate(-45)"/><circle class="b" cx="235.768" cy="235.768" r="235.768" transform="translate(774.1 359.52) rotate(-45)"/><circle class="b" cx="215.837" cy="215.837" r="215.837" transform="translate(802.286 359.52) rotate(-45)"/><circle class="b" cx="195.907" cy="195.907" r="195.907" transform="translate(830.471 359.52) rotate(-45)"/><circle class="b" cx="175.977" cy="175.977" r="175.977" transform="translate(858.657 359.52) rotate(-45)"/><circle class="b" cx="156.047" cy="156.047" r="156.047" transform="translate(886.842 359.52) rotate(-45)"/><circle class="b" cx="136.117" cy="136.117" r="136.117" transform="translate(971.409 223.403)"/><circle class="b" cx="116.187" cy="116.187" r="116.187" transform="translate(991.339 243.333)"/><circle class="b" cx="96.256" cy="96.256" r="96.256" transform="translate(1011.27 263.263)"/><circle class="b" cx="76.326" cy="76.326" r="76.326" transform="translate(1031.2 283.194)"/><circle class="b" cx="56.396" cy="56.396" r="56.396" transform="translate(1051.13 303.124)"/><circle class="b" cx="36.466" cy="36.466" r="36.466" transform="translate(1067.428 391.949) rotate(-83.964)"/><circle class="b" cx="16.536" cy="16.536" r="16.536" transform="translate(1090.405 375.449) rotate(-87.934)"/></g></svg>