<svg xmlns="http://www.w3.org/2000/svg" width="1448.581" height="1448.582" viewBox="0 0 1448.581 1448.582"><defs><style>.a{opacity:0.31;}.b{fill:none;stroke:#ffd25b;stroke-miterlimit:10;}</style></defs><g class="a" transform="translate(-378.796 369.21)"><circle class="b" cx="511.651" cy="511.651" r="511.651" transform="translate(379.503 355.081) rotate(-45)"/><circle class="b" cx="491.842" cy="491.842" r="491.842" transform="translate(407.517 355.081) rotate(-45)"/><circle class="b" cx="472.034" cy="472.034" r="472.034" transform="translate(435.531 355.081) rotate(-45)"/><circle class="b" cx="452.225" cy="452.225" r="452.225" transform="translate(463.544 355.081) rotate(-45)"/><circle class="b" cx="432.416" cy="432.416" r="432.416" transform="translate(491.558 355.081) rotate(-45)"/><circle class="b" cx="412.608" cy="412.608" r="412.608" transform="translate(519.571 355.081) rotate(-45)"/><circle class="b" cx="392.799" cy="392.799" r="392.799" transform="translate(547.585 355.081) rotate(-45)"/><circle class="b" cx="372.99" cy="372.99" r="372.99" transform="translate(575.599 355.081) rotate(-45)"/><circle class="b" cx="353.182" cy="353.182" r="353.182" transform="translate(603.612 355.081) rotate(-45)"/><circle class="b" cx="333.373" cy="333.373" r="333.373" transform="translate(631.626 355.081) rotate(-45)"/><circle class="b" cx="313.565" cy="313.565" r="313.565" transform="translate(659.64 355.081) rotate(-45)"/><circle class="b" cx="293.756" cy="293.756" r="293.756" transform="translate(687.653 355.081) rotate(-45)"/><circle class="b" cx="273.947" cy="273.947" r="273.947" transform="translate(715.667 355.081) rotate(-45)"/><circle class="b" cx="254.139" cy="254.139" r="254.139" transform="translate(743.681 355.081) rotate(-45)"/><circle class="b" cx="234.33" cy="234.33" r="234.33" transform="translate(771.694 355.081) rotate(-45)"/><circle class="b" cx="214.521" cy="214.521" r="214.521" transform="translate(799.708 355.081) rotate(-45)"/><circle class="b" cx="194.713" cy="194.713" r="194.713" transform="translate(827.722 355.081) rotate(-45)"/><circle class="b" cx="174.904" cy="174.904" r="174.904" transform="translate(855.735 355.081) rotate(-45)"/><circle class="b" cx="155.095" cy="155.095" r="155.095" transform="translate(883.749 355.081) rotate(-45)"/><circle class="b" cx="135.287" cy="135.287" r="135.287" transform="translate(967.8 219.794)"/><circle class="b" cx="115.478" cy="115.478" r="115.478" transform="translate(987.609 239.603)"/><circle class="b" cx="95.67" cy="95.67" r="95.67" transform="translate(1007.417 259.411)"/><circle class="b" cx="75.861" cy="75.861" r="75.861" transform="translate(1027.226 279.22)"/><circle class="b" cx="56.052" cy="56.052" r="56.052" transform="translate(1047.035 299.029)"/><circle class="b" cx="36.244" cy="36.244" r="36.244" transform="translate(1063.233 387.312) rotate(-83.964)"/><circle class="b" cx="16.435" cy="16.435" r="16.435" transform="translate(1086.07 370.913) rotate(-87.934)"/></g></svg>