<svg xmlns="http://www.w3.org/2000/svg" width="1077.749" height="1077.749" viewBox="0 0 1077.749 1077.749"><defs><style>.a{opacity:0.31;}.b{fill:none;stroke:#ffd25b;stroke-miterlimit:10;}</style></defs><g class="a" transform="translate(-378.796 369.21)"><circle class="b" cx="380.542" cy="380.542" r="380.542" transform="translate(379.503 169.665) rotate(-45)"/><circle class="b" cx="365.809" cy="365.809" r="365.809" transform="translate(400.339 169.665) rotate(-45)"/><circle class="b" cx="351.076" cy="351.076" r="351.076" transform="translate(421.174 169.665) rotate(-45)"/><circle class="b" cx="336.344" cy="336.344" r="336.344" transform="translate(442.009 169.664) rotate(-45)"/><circle class="b" cx="321.611" cy="321.611" r="321.611" transform="translate(462.844 169.664) rotate(-45)"/><circle class="b" cx="306.878" cy="306.878" r="306.878" transform="translate(483.679 169.664) rotate(-45)"/><circle class="b" cx="292.145" cy="292.145" r="292.145" transform="translate(504.515 169.664) rotate(-45)"/><circle class="b" cx="277.413" cy="277.413" r="277.413" transform="translate(525.35 169.664) rotate(-45)"/><circle class="b" cx="262.68" cy="262.68" r="262.68" transform="translate(546.185 169.664) rotate(-45)"/><circle class="b" cx="247.947" cy="247.947" r="247.947" transform="translate(567.02 169.664) rotate(-45)"/><circle class="b" cx="233.214" cy="233.214" r="233.214" transform="translate(587.856 169.664) rotate(-45)"/><circle class="b" cx="218.482" cy="218.482" r="218.482" transform="translate(608.691 169.664) rotate(-45)"/><circle class="b" cx="203.749" cy="203.749" r="203.749" transform="translate(629.526 169.664) rotate(-45)"/><circle class="b" cx="189.016" cy="189.016" r="189.016" transform="translate(650.361 169.664) rotate(-45)"/><circle class="b" cx="174.284" cy="174.284" r="174.284" transform="translate(671.196 169.664) rotate(-45)"/><circle class="b" cx="159.551" cy="159.551" r="159.551" transform="translate(692.032 169.664) rotate(-45)"/><circle class="b" cx="144.818" cy="144.818" r="144.818" transform="translate(712.867 169.664) rotate(-45)"/><circle class="b" cx="130.085" cy="130.085" r="130.085" transform="translate(733.702 169.664) rotate(-45)"/><circle class="b" cx="115.353" cy="115.353" r="115.353" transform="translate(754.537 169.664) rotate(-45)"/><circle class="b" cx="100.62" cy="100.62" r="100.62" transform="translate(817.051 69.045)"/><circle class="b" cx="85.887" cy="85.887" r="85.887" transform="translate(831.783 83.777)"/><circle class="b" cx="71.155" cy="71.155" r="71.155" transform="translate(846.516 98.51)"/><circle class="b" cx="56.422" cy="56.422" r="56.422" transform="translate(861.249 113.243)"/><circle class="b" cx="41.689" cy="41.689" r="41.689" transform="translate(875.982 127.975)"/><circle class="b" cx="26.956" cy="26.956" r="26.956" transform="translate(888.029 193.637) rotate(-83.964)"/><circle class="b" cx="12.224" cy="12.224" r="12.224" transform="translate(905.014 181.44) rotate(-87.934)"/></g></svg>